<svg width="380" height="111" viewBox="0 0 380 111" fill="none" xmlns="http://www.w3.org/2000/svg">
<path d="M48.9911 31.8983V77.0708C45.2038 74.658 42.0846 71.3223 39.9233 67.3737C37.762 63.4251 36.6287 58.9913 36.6287 54.4844C36.6287 49.9779 37.762 45.544 39.9233 41.5953C42.0846 37.6466 45.2038 34.311 48.9911 31.8983Z" fill="#7E9ACF"/>
<path d="M75.3082 78.3194C71.5708 80.2346 67.4344 81.2302 63.2391 81.2236H62.5953V54.1465L75.3082 78.3194Z" fill="#7E9ACF"/>
<path d="M76.2324 27.75V53.993L62.5952 28.057L62.4426 27.75H62.5952H63.2391H76.2324Z" fill="#7E9ACF"/>
<path d="M89.8367 27.75V54.4868C89.8443 57.5321 89.3305 60.5563 88.3179 63.4267C86.1647 69.5463 81.8688 74.6692 76.2328 77.8383V27.75H89.8367Z" fill="#78C7CE"/>
<path d="M62.5953 54.1468V81.2151C57.7633 81.1078 53.0529 79.6732 48.9745 77.067V31.8985C49.4491 31.5915 49.9362 31.3053 50.4315 31.0315L62.5953 54.1468Z" fill="#78C7CE"/>
<path d="M76.2325 53.993V77.8176C75.9272 77.9918 75.6173 78.1579 75.3078 78.3197L62.5953 54.1465L50.448 31.0397C54.1288 28.9996 58.2408 27.8718 62.4426 27.75L62.5953 28.0445L76.2325 53.993Z" fill="#84CEBF"/>
<path opacity="0.7" d="M105.7 83.283V74.6699H108.932C109.76 74.6699 110.374 74.8483 110.774 75.2052C111.178 75.5581 111.38 76.0726 111.38 76.7494C111.38 77.2539 111.266 77.6764 111.038 78.0167C110.813 78.3532 110.475 78.5993 110.022 78.755V78.4597C110.707 78.6073 111.219 78.878 111.558 79.2718C111.897 79.6655 112.066 80.1865 112.066 80.8344C112.066 81.6096 111.817 82.2125 111.319 82.6432C110.821 83.07 110.14 83.283 109.275 83.283H105.7ZM107.267 81.8803H109.042C109.471 81.8803 109.811 81.7923 110.064 81.6158C110.321 81.4397 110.45 81.1217 110.45 80.6622C110.45 80.1946 110.315 79.877 110.046 79.7086C109.777 79.5406 109.442 79.4563 109.042 79.4563H107.267V81.8803ZM107.267 78.0536H108.699C109.079 78.0536 109.362 77.976 109.55 77.8199C109.742 77.6641 109.838 77.4138 109.838 77.0697C109.838 76.7128 109.742 76.4583 109.55 76.3064C109.362 76.1507 109.079 76.0726 108.699 76.0726H107.267V78.0536ZM115.432 83.4065C115.106 83.4065 114.808 83.3346 114.539 83.1908C114.269 83.0431 114.055 82.832 113.896 82.5571C113.737 82.2825 113.657 81.9503 113.657 81.5604C113.657 81.212 113.737 80.9144 113.896 80.6683C114.059 80.4184 114.271 80.2111 114.532 80.047C114.798 79.8789 115.083 79.7478 115.389 79.6532C115.7 79.5548 116.003 79.4833 116.301 79.4379C116.603 79.3929 116.869 79.3664 117.097 79.3579C117.081 79.0053 116.991 78.7488 116.828 78.5889C116.665 78.4289 116.387 78.3489 115.995 78.3489C115.722 78.3489 115.455 78.3882 115.194 78.4658C114.936 78.5397 114.645 78.6566 114.318 78.8165L114.184 77.5738C114.551 77.3934 114.918 77.2581 115.285 77.1677C115.657 77.0777 116.032 77.0324 116.412 77.0324C116.869 77.0324 117.262 77.1147 117.593 77.2785C117.924 77.4426 118.179 77.7072 118.358 78.0721C118.538 78.4332 118.628 78.9111 118.628 79.5056V81.1667C118.628 81.4743 118.642 81.6981 118.67 81.8373C118.699 81.9726 118.752 82.0587 118.83 82.0957C118.907 82.1326 119.019 82.151 119.166 82.151H119.362L119.227 83.4065H118.676C118.448 83.4065 118.244 83.3757 118.064 83.3142C117.889 83.2565 117.738 83.1746 117.611 83.0677C117.485 82.9612 117.383 82.8362 117.305 82.6924C117.105 82.9181 116.834 83.0946 116.491 83.2215C116.153 83.3449 115.8 83.4065 115.432 83.4065ZM116.069 82.2372C116.204 82.2372 116.371 82.2026 116.571 82.1326C116.771 82.0587 116.95 81.9461 117.109 81.7942V80.3915C116.824 80.4038 116.538 80.4511 116.253 80.533C115.967 80.6153 115.728 80.736 115.536 80.896C115.345 81.0559 115.249 81.257 115.249 81.4989C115.249 81.7492 115.314 81.9357 115.445 82.0587C115.575 82.1779 115.783 82.2372 116.069 82.2372ZM120.587 86.2611L120.452 85.006C120.644 85.006 120.793 84.9753 120.899 84.9138C121.005 84.8561 121.079 84.7557 121.119 84.6123C121.164 84.4685 121.187 84.2716 121.187 84.0217V77.1308H122.705V84.6492C122.705 85.0799 122.641 85.4098 122.515 85.6397C122.389 85.8735 122.203 86.0354 121.958 86.1258C121.713 86.2157 121.415 86.2611 121.064 86.2611H120.587ZM121.187 76.1957V74.6699H122.705V76.1957H121.187ZM126.429 83.4065C126.103 83.4065 125.805 83.3346 125.536 83.1908C125.266 83.0431 125.052 82.832 124.893 82.5571C124.734 82.2825 124.654 81.9503 124.654 81.5604C124.654 81.212 124.734 80.9144 124.893 80.6683C125.056 80.4184 125.268 80.2111 125.529 80.047C125.795 79.8789 126.08 79.7478 126.386 79.6532C126.697 79.5548 127 79.4833 127.299 79.4379C127.6 79.3929 127.866 79.3664 128.094 79.3579C128.078 79.0053 127.988 78.7488 127.825 78.5889C127.662 78.4289 127.384 78.3489 126.992 78.3489C126.719 78.3489 126.452 78.3882 126.191 78.4658C125.933 78.5397 125.642 78.6566 125.315 78.8165L125.181 77.5738C125.548 77.3934 125.915 77.2581 126.282 77.1677C126.654 77.0777 127.029 77.0324 127.409 77.0324C127.866 77.0324 128.26 77.1147 128.59 77.2785C128.921 77.4426 129.176 77.7072 129.355 78.0721C129.535 78.4332 129.625 78.9111 129.625 79.5056V81.1667C129.625 81.4743 129.639 81.6981 129.667 81.8373C129.696 81.9726 129.749 82.0587 129.827 82.0957C129.904 82.1326 130.016 82.151 130.163 82.151H130.359L130.224 83.4065H129.674C129.445 83.4065 129.241 83.3757 129.061 83.3142C128.886 83.2565 128.735 83.1746 128.608 83.0677C128.482 82.9612 128.38 82.8362 128.302 82.6924C128.102 82.9181 127.831 83.0946 127.488 83.2215C127.15 83.3449 126.797 83.4065 126.429 83.4065ZM127.066 82.2372C127.201 82.2372 127.368 82.2026 127.568 82.1326C127.768 82.0587 127.947 81.9461 128.107 81.7942V80.3915C127.821 80.4038 127.535 80.4511 127.25 80.533C126.964 80.6153 126.725 80.736 126.533 80.896C126.342 81.0559 126.246 81.257 126.246 81.4989C126.246 81.7492 126.311 81.9357 126.442 82.0587C126.572 82.1779 126.78 82.2372 127.066 82.2372ZM131.584 86.2611L131.449 85.006C131.641 85.006 131.79 84.9753 131.896 84.9138C132.002 84.8561 132.076 84.7557 132.116 84.6123C132.161 84.4685 132.184 84.2716 132.184 84.0217V77.1308H133.702V84.6492C133.702 85.0799 133.638 85.4098 133.512 85.6397C133.386 85.8735 133.2 86.0354 132.955 86.1258C132.71 86.2157 132.412 86.2611 132.061 86.2611H131.584ZM132.184 76.1957V74.6699H133.702V76.1957H132.184ZM140.066 83.283V74.6699H141.633V83.283H140.066ZM144.16 83.283V77.1308H145.58L145.641 78.2751L145.286 77.8076C145.519 77.6107 145.797 77.4323 146.119 77.2723C146.441 77.1123 146.817 77.0324 147.245 77.0324C148.029 77.0324 148.61 77.295 148.99 77.8199C149.369 78.3409 149.559 79.0176 149.559 79.8501V83.283H148.041V79.9731C148.041 79.3991 147.945 78.9746 147.753 78.6996C147.566 78.4251 147.257 78.2874 146.829 78.2874C146.482 78.2874 146.198 78.3736 145.978 78.5458C145.758 78.7142 145.564 78.9396 145.396 79.2226L145.678 78.472V83.283H144.16ZM153.633 83.4065C153.229 83.4065 152.864 83.3672 152.537 83.2896C152.215 83.2115 151.89 83.0985 151.564 82.9508L151.699 81.6465C152.013 81.8311 152.321 81.9811 152.623 82.0957C152.929 82.2064 153.249 82.2618 153.584 82.2618C153.886 82.2618 154.116 82.2126 154.276 82.1141C154.435 82.0157 154.514 81.8599 154.514 81.6465C154.514 81.4866 154.471 81.3555 154.386 81.2528C154.304 81.1505 154.18 81.0582 154.012 80.9759C153.845 80.894 153.637 80.806 153.388 80.7114C153.012 80.5722 152.692 80.4203 152.427 80.2561C152.166 80.0923 151.966 79.8955 151.827 79.6659C151.692 79.4317 151.625 79.1449 151.625 78.8042C151.625 78.4516 151.717 78.1398 151.901 77.8691C152.084 77.5984 152.345 77.3873 152.684 77.2354C153.023 77.0839 153.425 77.0078 153.89 77.0078C154.278 77.0078 154.625 77.0508 154.931 77.137C155.24 77.2231 155.526 77.34 155.788 77.4876L155.653 78.7919C155.379 78.5993 155.104 78.4412 154.827 78.3182C154.549 78.1913 154.245 78.1275 153.914 78.1275C153.653 78.1275 153.451 78.1809 153.308 78.2874C153.165 78.3943 153.094 78.5458 153.094 78.7427C153.094 78.9807 153.194 79.1591 153.394 79.2779C153.594 79.3971 153.914 79.5425 154.355 79.7147C154.641 79.8255 154.888 79.9405 155.096 80.0593C155.308 80.1785 155.483 80.3096 155.622 80.453C155.761 80.5968 155.863 80.7606 155.928 80.9452C155.998 81.1259 156.032 81.3351 156.032 81.5727C156.032 81.9626 155.938 82.2948 155.751 82.5694C155.567 82.8401 155.296 83.0473 154.937 83.1908C154.582 83.3346 154.147 83.4065 153.633 83.4065ZM160.046 83.4065C159.662 83.4065 159.35 83.3284 159.109 83.1723C158.869 83.0123 158.691 82.8093 158.577 82.5632C158.462 82.3171 158.405 82.0611 158.405 81.7942V78.3859H157.536L157.671 77.1308H158.405V75.7773L159.924 75.6174V77.1308H161.27V78.3859H159.924V81.1667C159.924 81.4785 159.942 81.7042 159.979 81.8434C160.015 81.9788 160.099 82.0649 160.23 82.1018C160.36 82.1349 160.568 82.151 160.854 82.151H161.27L161.136 83.4065H160.046ZM163.238 83.283V77.1308H164.756V83.283H163.238ZM163.238 76.1957V74.6699H164.756V76.1957H163.238ZM169.154 83.4065C168.77 83.4065 168.458 83.3284 168.217 83.1723C167.977 83.0123 167.799 82.8093 167.685 82.5632C167.571 82.3171 167.513 82.0611 167.513 81.7942V78.3859H166.644L166.779 77.1308H167.513V75.7773L169.031 75.6174V77.1308H170.378V78.3859H169.031V81.1667C169.031 81.4785 169.05 81.7042 169.086 81.8434C169.123 81.9788 169.207 82.0649 169.337 82.1018C169.468 82.1349 169.676 82.151 169.962 82.151H170.378L170.243 83.4065H169.154ZM174.88 83.4065C174.244 83.4065 173.736 83.2792 173.356 83.0246C172.976 82.7705 172.703 82.4217 172.536 81.9788C172.369 81.532 172.285 81.019 172.285 80.4407V77.1308H173.803V80.4407C173.803 81.0109 173.897 81.4354 174.084 81.7142C174.276 81.9891 174.586 82.1264 175.015 82.1264C175.358 82.1264 175.641 82.0445 175.866 81.8803C176.094 81.7165 176.284 81.4866 176.435 81.1913L176.166 81.9665V77.1308H177.684V83.283H176.264L176.19 82.2125L176.521 82.6432C176.374 82.832 176.141 83.0062 175.823 83.1661C175.509 83.3265 175.195 83.4065 174.88 83.4065ZM182.076 83.4065C181.692 83.4065 181.38 83.3284 181.139 83.1723C180.898 83.0123 180.721 82.8093 180.607 82.5632C180.493 82.3171 180.436 82.0611 180.436 81.7942V78.3859H179.566L179.701 77.1308H180.436V75.7773L181.954 75.6174V77.1308H183.3V78.3859H181.954V81.1667C181.954 81.4785 181.972 81.7042 182.009 81.8434C182.045 81.9788 182.129 82.0649 182.26 82.1018C182.39 82.1349 182.598 82.151 182.884 82.151H183.3L183.166 83.4065H182.076ZM188.219 83.4065C187.48 83.4065 186.863 83.2588 186.37 82.9631C185.88 82.664 185.513 82.2702 185.268 81.7819C185.023 81.2897 184.901 80.7525 184.901 80.17C184.901 79.6082 185.015 79.0895 185.244 78.6135C185.476 78.1378 185.815 77.7564 186.26 77.4692C186.704 77.1781 187.247 77.0324 187.888 77.0324C188.476 77.0324 188.965 77.1535 189.357 77.3954C189.749 77.6376 190.043 77.9614 190.239 78.3674C190.434 78.7696 190.532 79.2145 190.532 79.7024C190.532 79.8378 190.524 79.9754 190.508 80.1146C190.491 80.25 190.467 80.3915 190.434 80.5391H186.48C186.537 80.9206 186.655 81.2305 186.835 81.4681C187.019 81.7019 187.241 81.8742 187.502 81.9849C187.767 82.0957 188.051 82.151 188.353 82.151C188.708 82.151 189.039 82.106 189.345 82.0157C189.651 81.9215 189.932 81.7984 190.19 81.6465L190.263 82.9385C190.03 83.0616 189.74 83.1704 189.394 83.2646C189.047 83.3592 188.655 83.4065 188.219 83.4065ZM186.517 79.5056H188.99C188.99 79.321 188.955 79.1364 188.886 78.9519C188.816 78.7635 188.7 78.6054 188.537 78.4781C188.378 78.3513 188.161 78.2874 187.888 78.2874C187.496 78.2874 187.188 78.4024 186.964 78.632C186.739 78.8619 186.59 79.153 186.517 79.5056ZM199.056 83.4065C198.391 83.4065 197.824 83.2607 197.354 82.9693C196.885 82.6782 196.526 82.2906 196.277 81.8065C196.032 81.3228 195.91 80.7937 195.91 80.2192C195.91 79.6409 196.032 79.108 196.277 78.6196C196.526 78.1317 196.885 77.7422 197.354 77.4507C197.824 77.1554 198.391 77.0078 199.056 77.0078C199.721 77.0078 200.288 77.1554 200.758 77.4507C201.227 77.7422 201.584 78.1317 201.829 78.6196C202.078 79.108 202.202 79.6409 202.202 80.2192C202.202 80.7937 202.078 81.3228 201.829 81.8065C201.584 82.2906 201.227 82.6782 200.758 82.9693C200.288 83.2607 199.721 83.4065 199.056 83.4065ZM199.056 82.151C199.566 82.151 199.958 81.9726 200.231 81.6158C200.509 81.2551 200.648 80.7895 200.648 80.2192C200.648 79.6409 200.509 79.1714 200.231 78.8104C199.958 78.4455 199.566 78.2628 199.056 78.2628C198.55 78.2628 198.158 78.4455 197.881 78.8104C197.603 79.1714 197.465 79.6409 197.465 80.2192C197.465 80.7895 197.603 81.2551 197.881 81.6158C198.158 81.9726 198.55 82.151 199.056 82.151ZM204.534 83.283V78.3859H203.665L203.799 77.1308H204.534V75.8265C204.534 75.2851 204.693 74.8545 205.011 74.5346C205.334 74.2146 205.795 74.0547 206.395 74.0547C206.59 74.0547 206.77 74.0651 206.933 74.0854C207.101 74.1062 207.252 74.1327 207.386 74.1654L207.252 75.3959C207.19 75.3755 207.123 75.3613 207.05 75.3528C206.976 75.3405 206.884 75.3344 206.774 75.3344C206.554 75.3344 206.378 75.394 206.248 75.5128C206.117 75.632 206.052 75.8265 206.052 76.0972V77.1308H207.398V78.3859H206.052V83.283H204.534ZM214.933 83.283V76.1957H212.509V74.6699H218.924V76.1957H216.5V83.283H214.933ZM222.847 83.4065C222.109 83.4065 221.493 83.2588 220.999 82.9631C220.509 82.664 220.142 82.2702 219.897 81.7819C219.652 81.2897 219.53 80.7525 219.53 80.17C219.53 79.6082 219.644 79.0895 219.873 78.6135C220.105 78.1378 220.444 77.7564 220.889 77.4692C221.334 77.1781 221.876 77.0324 222.517 77.0324C223.105 77.0324 223.594 77.1535 223.986 77.3954C224.378 77.6376 224.672 77.9614 224.867 78.3674C225.063 78.7696 225.161 79.2145 225.161 79.7024C225.161 79.8378 225.153 79.9754 225.137 80.1146C225.12 80.25 225.096 80.3915 225.063 80.5391H221.109C221.166 80.9206 221.285 81.2305 221.464 81.4681C221.648 81.7019 221.87 81.8742 222.131 81.9849C222.396 82.0957 222.68 82.151 222.982 82.151C223.337 82.151 223.668 82.106 223.974 82.0157C224.28 81.9215 224.561 81.7984 224.818 81.6465L224.892 82.9385C224.659 83.0616 224.37 83.1704 224.023 83.2646C223.676 83.3592 223.284 83.4065 222.847 83.4065ZM221.146 79.5056H223.619C223.619 79.321 223.584 79.1364 223.515 78.9519C223.445 78.7635 223.329 78.6054 223.166 78.4781C223.007 78.3513 222.79 78.2874 222.517 78.2874C222.125 78.2874 221.817 78.4024 221.593 78.632C221.368 78.8619 221.219 79.153 221.146 79.5056ZM230.017 83.4065C229.315 83.4065 228.726 83.2627 228.248 82.9754C227.775 82.6843 227.416 82.2987 227.171 81.8188C226.93 81.3351 226.81 80.8018 226.81 80.2192C226.81 79.6328 226.93 79.0976 227.171 78.6135C227.412 78.1255 227.773 77.736 228.254 77.4446C228.736 77.1535 229.34 77.0078 230.066 77.0078C230.409 77.0078 230.719 77.047 230.997 77.1247C231.274 77.1985 231.511 77.2908 231.707 77.4015L231.584 78.632C231.396 78.5335 231.184 78.4516 230.948 78.3859C230.715 78.3205 230.47 78.2874 230.213 78.2874C229.625 78.2874 229.17 78.4658 228.848 78.8227C228.526 79.1795 228.365 79.6451 228.365 80.2192C228.365 80.7648 228.53 81.2243 228.86 81.5973C229.191 81.9665 229.638 82.151 230.201 82.151C230.442 82.151 230.678 82.1164 230.911 82.0464C231.147 81.9726 231.376 81.8723 231.597 81.745L231.731 83.0369C231.519 83.1477 231.262 83.2361 230.96 83.3019C230.662 83.3715 230.348 83.4065 230.017 83.4065ZM233.715 83.283V74.0547H235.233V78.029L234.89 77.7583C235.148 77.578 235.427 77.4119 235.729 77.26C236.031 77.1085 236.392 77.0324 236.812 77.0324C237.351 77.0324 237.79 77.1535 238.129 77.3954C238.467 77.6334 238.716 77.9656 238.875 78.392C239.034 78.8146 239.114 79.3049 239.114 79.8624V83.283H237.596V79.9731C237.596 79.3991 237.504 78.9746 237.321 78.6996C237.137 78.4251 236.837 78.2874 236.421 78.2874C236.066 78.2874 235.774 78.3716 235.545 78.5397C235.321 78.7039 235.123 78.9273 234.952 79.2103L235.233 78.3859V83.283H233.715ZM241.45 83.283V77.1308H242.87L242.931 78.2751L242.576 77.8076C242.809 77.6107 243.086 77.4323 243.408 77.2723C243.731 77.1123 244.106 77.0324 244.535 77.0324C245.318 77.0324 245.9 77.295 246.279 77.8199C246.659 78.3409 246.849 79.0176 246.849 79.8501V83.283H245.33V79.9731C245.33 79.3991 245.234 78.9746 245.043 78.6996C244.855 78.4251 244.547 78.2874 244.118 78.2874C243.771 78.2874 243.488 78.3736 243.268 78.5458C243.047 78.7142 242.853 78.9396 242.686 79.2226L242.968 78.472V83.283H241.45ZM251.963 83.4065C251.298 83.4065 250.73 83.2607 250.261 82.9693C249.792 82.6782 249.433 82.2906 249.184 81.8065C248.939 81.3228 248.816 80.7937 248.816 80.2192C248.816 79.6409 248.939 79.108 249.184 78.6196C249.433 78.1317 249.792 77.7422 250.261 77.4507C250.73 77.1554 251.298 77.0078 251.963 77.0078C252.628 77.0078 253.195 77.1554 253.664 77.4507C254.134 77.7422 254.491 78.1317 254.736 78.6196C254.985 79.108 255.109 79.6409 255.109 80.2192C255.109 80.7937 254.985 81.3228 254.736 81.8065C254.491 82.2906 254.134 82.6782 253.664 82.9693C253.195 83.2607 252.628 83.4065 251.963 83.4065ZM251.963 82.151C252.473 82.151 252.865 81.9726 253.138 81.6158C253.416 81.2551 253.554 80.7895 253.554 80.2192C253.554 79.6409 253.416 79.1714 253.138 78.8104C252.865 78.4455 252.473 78.2628 251.963 78.2628C251.457 78.2628 251.065 78.4455 250.787 78.8104C250.51 79.1714 250.371 79.6409 250.371 80.2192C250.371 80.7895 250.51 81.2551 250.787 81.6158C251.065 81.9726 251.457 82.151 251.963 82.151ZM258.712 83.4065C258.349 83.4065 258.051 83.3346 257.818 83.1908C257.59 83.0431 257.421 82.8485 257.31 82.6063C257.2 82.3602 257.145 82.0895 257.145 81.7942V74.0547H258.663V81.1667C258.663 81.495 258.681 81.7288 258.718 81.868C258.759 82.0034 258.833 82.0857 258.939 82.1141C259.045 82.1387 259.198 82.151 259.398 82.151L259.263 83.4065H258.712ZM264.06 83.4065C263.395 83.4065 262.827 83.2607 262.358 82.9693C261.889 82.6782 261.53 82.2906 261.281 81.8065C261.036 81.3228 260.913 80.7937 260.913 80.2192C260.913 79.6409 261.036 79.108 261.281 78.6196C261.53 78.1317 261.889 77.7422 262.358 77.4507C262.827 77.1554 263.395 77.0078 264.06 77.0078C264.725 77.0078 265.292 77.1554 265.761 77.4507C266.231 77.7422 266.588 78.1317 266.833 78.6196C267.082 79.108 267.206 79.6409 267.206 80.2192C267.206 80.7937 267.082 81.3228 266.833 81.8065C266.588 82.2906 266.231 82.6782 265.761 82.9693C265.292 83.2607 264.725 83.4065 264.06 83.4065ZM264.06 82.151C264.57 82.151 264.962 81.9726 265.235 81.6158C265.513 81.2551 265.651 80.7895 265.651 80.2192C265.651 79.6409 265.513 79.1714 265.235 78.8104C264.962 78.4455 264.57 78.2628 264.06 78.2628C263.554 78.2628 263.162 78.4455 262.884 78.8104C262.607 79.1714 262.468 79.6409 262.468 80.2192C262.468 80.7895 262.607 81.2551 262.884 81.6158C263.162 81.9726 263.554 82.151 264.06 82.151ZM271.666 86.3841C271.095 86.3841 270.595 86.3122 270.166 86.1688C269.742 86.0292 269.411 85.8281 269.175 85.5659C268.942 85.3033 268.826 84.9895 268.826 84.6246C268.826 84.317 268.91 84.0421 269.077 83.8002C269.248 83.5622 269.495 83.353 269.817 83.1723C269.654 83.0739 269.524 82.9508 269.426 82.8032C269.328 82.6555 269.279 82.4875 269.279 82.2987C269.279 82.1018 269.334 81.9319 269.444 81.788C269.558 81.6404 269.707 81.5235 269.891 81.4374C269.581 81.2159 269.346 80.9329 269.187 80.5884C269.028 80.24 268.948 79.8624 268.948 79.4563C268.948 79.0134 269.044 78.6073 269.236 78.2382C269.428 77.8652 269.707 77.5676 270.074 77.3461C270.446 77.1208 270.899 77.0078 271.433 77.0078C271.711 77.0078 271.966 77.0428 272.199 77.1124C272.435 77.1823 272.645 77.2785 272.829 77.4015C272.951 77.3319 273.129 77.2704 273.362 77.2169C273.594 77.1596 273.854 77.1308 274.139 77.1308C274.209 77.1308 274.274 77.1308 274.335 77.1308C274.4 77.1308 274.466 77.1308 274.531 77.1308L274.433 78.0906C274.343 78.0906 274.251 78.0906 274.157 78.0906C274.068 78.0906 273.976 78.0906 273.882 78.0906C273.845 78.0906 273.796 78.0906 273.735 78.0906C273.674 78.0906 273.609 78.0948 273.539 78.1029C273.661 78.2917 273.753 78.5028 273.814 78.7365C273.876 78.9703 273.906 79.2103 273.906 79.4563C273.906 79.8993 273.811 80.3077 273.619 80.6806C273.431 81.0498 273.153 81.3474 272.786 81.5727C272.419 81.7942 271.968 81.9049 271.433 81.9049C271.319 81.9049 271.209 81.8969 271.103 81.8803C270.997 81.8642 270.891 81.8434 270.785 81.8188C270.695 81.8557 270.65 81.9215 270.65 82.0157C270.65 82.1264 270.717 82.2106 270.852 82.2679C270.987 82.3256 271.197 82.3767 271.482 82.4217L272.535 82.5571C273.192 82.6432 273.707 82.8301 274.078 83.1169C274.453 83.4042 274.641 83.8125 274.641 84.3416C274.641 84.7515 274.523 85.1083 274.286 85.4121C274.053 85.7197 273.715 85.9573 273.27 86.1258C272.825 86.298 272.29 86.3841 271.666 86.3841ZM271.727 85.2275C272.241 85.2275 272.631 85.1637 272.896 85.0368C273.162 84.9095 273.294 84.7146 273.294 84.4523C273.294 84.2186 273.2 84.0463 273.013 83.9356C272.829 83.8248 272.535 83.7387 272.131 83.6772L270.791 83.4803C270.591 83.558 270.423 83.6649 270.289 83.8002C270.154 83.9394 270.087 84.1201 270.087 84.3416C270.087 84.6408 270.232 84.8622 270.521 85.006C270.811 85.1537 271.213 85.2275 271.727 85.2275ZM271.433 80.7729C271.797 80.7729 272.07 80.6541 272.254 80.4161C272.441 80.1742 272.535 79.8543 272.535 79.4563C272.535 79.0545 272.441 78.7346 272.254 78.4966C272.07 78.259 271.797 78.1398 271.433 78.1398C271.066 78.1398 270.789 78.259 270.601 78.4966C270.413 78.7346 270.319 79.0545 270.319 79.4563C270.319 79.8543 270.413 80.1742 270.601 80.4161C270.789 80.6541 271.066 80.7729 271.433 80.7729ZM276.844 86.2611L278.203 82.8774L275.657 77.1308H277.346L278.913 81.0928L280.505 77.1308H282.194L278.363 86.2611H276.844ZM284.31 84.76H283.6L284.126 83.283H283.502V81.6096H285.094V83.1354L284.31 84.76ZM292.929 83.283L290.517 74.6699H292.145L293.859 80.7852L295.769 74.6699H296.859L298.842 80.6253L300.482 74.6699H302.111L299.601 83.283H298.218L296.308 77.5369L294.41 83.283H292.929ZM304.752 83.4065C304.426 83.4065 304.128 83.3346 303.858 83.1908C303.589 83.0431 303.375 82.832 303.216 82.5571C303.056 82.2825 302.977 81.9503 302.977 81.5604C302.977 81.212 303.056 80.9144 303.216 80.6683C303.379 80.4184 303.591 80.2111 303.852 80.047C304.117 79.8789 304.403 79.7478 304.709 79.6532C305.019 79.5548 305.323 79.4833 305.621 79.4379C305.923 79.3929 306.189 79.3664 306.417 79.3579C306.4 79.0053 306.311 78.7488 306.148 78.5889C305.984 78.4289 305.707 78.3489 305.315 78.3489C305.042 78.3489 304.775 78.3882 304.513 78.4658C304.256 78.5397 303.964 78.6566 303.638 78.8165L303.503 77.5738C303.871 77.3934 304.238 77.2581 304.605 77.1677C304.977 77.0777 305.352 77.0324 305.731 77.0324C306.189 77.0324 306.582 77.1147 306.913 77.2785C307.243 77.4426 307.498 77.7072 307.678 78.0721C307.857 78.4332 307.947 78.9111 307.947 79.5056V81.1667C307.947 81.4743 307.961 81.6981 307.99 81.8373C308.019 81.9726 308.072 82.0587 308.149 82.0957C308.227 82.1326 308.339 82.151 308.486 82.151H308.682L308.547 83.4065H307.996C307.768 83.4065 307.563 83.3757 307.384 83.3142C307.208 83.2565 307.058 83.1746 306.931 83.0677C306.804 82.9612 306.703 82.8362 306.625 82.6924C306.425 82.9181 306.154 83.0946 305.811 83.2215C305.472 83.3449 305.119 83.4065 304.752 83.4065ZM305.389 82.2372C305.523 82.2372 305.69 82.2026 305.891 82.1326C306.091 82.0587 306.27 81.9461 306.429 81.7942V80.3915C306.143 80.4038 305.858 80.4511 305.572 80.533C305.286 80.6153 305.048 80.736 304.856 80.896C304.664 81.0559 304.568 81.257 304.568 81.4989C304.568 81.7492 304.634 81.9357 304.764 82.0587C304.895 82.1779 305.103 82.2372 305.389 82.2372ZM310.506 83.283V77.1308H311.926L311.963 77.7829C312.118 77.6107 312.336 77.4384 312.618 77.2662C312.9 77.0939 313.208 77.0078 313.542 77.0078C313.64 77.0078 313.73 77.0162 313.812 77.0324L313.701 78.5335C313.612 78.5089 313.522 78.4928 313.432 78.4843C313.346 78.4762 313.261 78.472 313.175 78.472C312.918 78.472 312.683 78.5316 312.471 78.6504C312.259 78.7696 312.11 78.915 312.024 79.0872V83.283H310.506ZM317.892 83.4065C317.272 83.4065 316.749 83.2607 316.325 82.9693C315.905 82.6782 315.586 82.2906 315.37 81.8065C315.158 81.3228 315.052 80.7937 315.052 80.2192C315.052 79.6451 315.158 79.1161 315.37 78.632C315.586 78.1482 315.905 77.7606 316.325 77.4692C316.749 77.1781 317.272 77.0324 317.892 77.0324C318.341 77.0324 318.72 77.1085 319.031 77.26C319.341 77.4077 319.614 77.5984 319.851 77.8322L319.484 78.1521V74.0547H321.002V83.283H319.569L319.496 82.2372L319.937 82.5571C319.651 82.8197 319.355 83.0269 319.049 83.1784C318.743 83.3303 318.357 83.4065 317.892 83.4065ZM318.113 82.151C318.447 82.151 318.72 82.0691 318.933 81.9049C319.145 81.7411 319.302 81.5154 319.404 81.2282C319.506 80.9371 319.557 80.6007 319.557 80.2192C319.557 79.8378 319.506 79.5036 319.404 79.2164C319.302 78.9253 319.145 78.6977 318.933 78.5335C318.72 78.3697 318.447 78.2874 318.113 78.2874C317.794 78.2874 317.523 78.3697 317.298 78.5335C317.074 78.6977 316.902 78.9253 316.784 79.2164C316.666 79.5036 316.607 79.8378 316.607 80.2192C316.607 80.6007 316.666 80.9371 316.784 81.2282C316.902 81.5154 317.074 81.7411 317.298 81.9049C317.523 82.0691 317.794 82.151 318.113 82.151ZM323.38 83.283V74.0547H324.898V78.029L324.555 77.7583C324.813 77.578 325.092 77.4119 325.394 77.26C325.696 77.1085 326.057 77.0324 326.478 77.0324C327.016 77.0324 327.455 77.1535 327.794 77.3954C328.132 77.6334 328.381 77.9656 328.54 78.392C328.699 78.8146 328.779 79.3049 328.779 79.8624V83.283H327.261V79.9731C327.261 79.3991 327.169 78.9746 326.986 78.6996C326.802 78.4251 326.502 78.2874 326.086 78.2874C325.731 78.2874 325.439 78.3716 325.21 78.5397C324.986 78.7039 324.788 78.9273 324.617 79.2103L324.898 78.3859V83.283H323.38ZM332.437 83.4065C332.111 83.4065 331.812 83.3346 331.543 83.1908C331.274 83.0431 331.06 82.832 330.9 82.5571C330.741 82.2825 330.662 81.9503 330.662 81.5604C330.662 81.212 330.741 80.9144 330.9 80.6683C331.064 80.4184 331.276 80.2111 331.537 80.047C331.802 79.8789 332.088 79.7478 332.394 79.6532C332.704 79.5548 333.008 79.4833 333.306 79.4379C333.608 79.3929 333.873 79.3664 334.102 79.3579C334.085 79.0053 333.996 78.7488 333.832 78.5889C333.669 78.4289 333.392 78.3489 333 78.3489C332.726 78.3489 332.459 78.3882 332.198 78.4658C331.941 78.5397 331.649 78.6566 331.323 78.8165L331.188 77.5738C331.555 77.3934 331.923 77.2581 332.29 77.1677C332.661 77.0777 333.037 77.0324 333.416 77.0324C333.873 77.0324 334.267 77.1147 334.598 77.2785C334.928 77.4426 335.183 77.7072 335.363 78.0721C335.542 78.4332 335.632 78.9111 335.632 79.5056V81.1667C335.632 81.4743 335.646 81.6981 335.675 81.8373C335.704 81.9726 335.756 82.0587 335.834 82.0957C335.912 82.1326 336.024 82.151 336.171 82.151H336.367L336.232 83.4065H335.681C335.453 83.4065 335.248 83.3757 335.069 83.3142C334.893 83.2565 334.743 83.1746 334.616 83.0677C334.489 82.9612 334.388 82.8362 334.31 82.6924C334.11 82.9181 333.839 83.0946 333.496 83.2215C333.157 83.3449 332.804 83.4065 332.437 83.4065ZM333.073 82.2372C333.208 82.2372 333.375 82.2026 333.575 82.1326C333.775 82.0587 333.955 81.9461 334.114 81.7942V80.3915C333.828 80.4038 333.543 80.4511 333.257 80.533C332.971 80.6153 332.733 80.736 332.541 80.896C332.349 81.0559 332.253 81.257 332.253 81.4989C332.253 81.7492 332.319 81.9357 332.449 82.0587C332.58 82.1779 332.788 82.2372 333.073 82.2372Z" fill="url(#paint0_linear_331_146)"/>
<path opacity="0.7" d="M105.588 55.686C105.588 54.0492 105.951 52.5869 106.679 51.2995C107.422 49.9964 108.426 48.987 109.691 48.2718C110.972 47.5409 112.403 47.1752 113.984 47.1752C115.834 47.1752 117.455 47.652 118.847 48.6056C120.238 49.5592 121.211 50.8785 121.764 52.563H117.945C117.566 51.7686 117.028 51.1726 116.333 50.775C115.652 50.3778 114.862 50.179 113.961 50.179C112.996 50.179 112.134 50.4097 111.375 50.8704C110.632 51.3156 110.047 51.9512 109.62 52.7776C109.209 53.6043 109.003 54.5736 109.003 55.686C109.003 56.7827 109.209 57.7524 109.62 58.5945C110.047 59.4212 110.632 60.0649 111.375 60.5255C112.134 60.9708 112.996 61.1931 113.961 61.1931C114.862 61.1931 115.652 60.9947 116.333 60.5971C117.028 60.1841 117.566 59.58 117.945 58.7852H121.764C121.211 60.4859 120.238 61.8129 118.847 62.7665C117.471 63.7043 115.85 64.173 113.984 64.173C112.403 64.173 110.972 63.8154 109.691 63.1003C108.426 62.3693 107.422 61.3599 106.679 60.0726C105.951 58.7852 105.588 57.3233 105.588 55.686ZM130.435 64.2446C129.17 64.2446 128.032 63.9666 127.02 63.4102C126.008 62.838 125.209 62.0355 124.624 61.0023C124.055 59.9695 123.77 58.7775 123.77 57.4264C123.77 56.0756 124.063 54.8836 124.648 53.8504C125.249 52.8176 126.063 52.0228 127.091 51.4664C128.119 50.8942 129.265 50.6081 130.53 50.6081C131.795 50.6081 132.942 50.8942 133.969 51.4664C134.997 52.0228 135.804 52.8176 136.389 53.8504C136.99 54.8836 137.29 56.0756 137.29 57.4264C137.29 58.7775 136.982 59.9695 136.365 61.0023C135.765 62.0355 134.942 62.838 133.898 63.4102C132.871 63.9666 131.716 64.2446 130.435 64.2446ZM130.435 61.3361C131.036 61.3361 131.598 61.1931 132.119 60.907C132.657 60.6051 133.084 60.1603 133.4 59.5719C133.717 58.984 133.875 58.2688 133.875 57.4264C133.875 56.1709 133.543 55.2092 132.878 54.5417C132.23 53.8584 131.431 53.5166 130.483 53.5166C129.534 53.5166 128.736 53.8584 128.087 54.5417C127.455 55.2092 127.138 56.1709 127.138 57.4264C127.138 58.6822 127.447 59.6515 128.063 60.3348C128.696 61.0023 129.486 61.3361 130.435 61.3361ZM138.873 57.3787C138.873 56.0436 139.133 54.8597 139.655 53.8265C140.193 52.7937 140.92 51.9989 141.837 51.4425C142.754 50.8865 143.774 50.6081 144.897 50.6081C145.751 50.6081 146.565 50.7989 147.34 51.1803C148.115 51.546 148.732 52.0385 149.19 52.6584V46.3885H152.559V64.03H149.19V62.0751C148.779 62.7269 148.202 63.2514 147.459 63.6486C146.716 64.0462 145.854 64.2446 144.874 64.2446C143.766 64.2446 142.754 63.9585 141.837 63.3863C140.92 62.8142 140.193 62.0117 139.655 60.9785C139.133 59.9295 138.873 58.7299 138.873 57.3787ZM149.214 57.4264C149.214 56.6158 149.056 55.9244 148.74 55.3523C148.423 54.7644 147.996 54.3195 147.459 54.0172C146.921 53.6996 146.344 53.5404 145.727 53.5404C145.111 53.5404 144.541 53.6916 144.02 53.9934C143.498 54.2956 143.071 54.7405 142.739 55.3284C142.422 55.9006 142.264 56.5843 142.264 57.3787C142.264 58.1735 142.422 58.8729 142.739 59.4766C143.071 60.0649 143.498 60.5178 144.02 60.8355C144.557 61.1535 145.126 61.3123 145.727 61.3123C146.344 61.3123 146.921 61.1615 147.459 60.8593C147.996 60.5417 148.423 60.0964 148.74 59.5243C149.056 58.9363 149.214 58.2369 149.214 57.4264ZM157.486 49.2493C156.901 49.2493 156.41 49.0666 156.015 48.7009C155.636 48.3195 155.446 47.8508 155.446 47.2944C155.446 46.7384 155.636 46.2774 156.015 45.9117C156.41 45.5302 156.901 45.3396 157.486 45.3396C158.071 45.3396 158.553 45.5302 158.933 45.9117C159.328 46.2774 159.526 46.7384 159.526 47.2944C159.526 47.8508 159.328 48.3195 158.933 48.7009C158.553 49.0666 158.071 49.2493 157.486 49.2493ZM159.122 50.8227V64.03H155.802V50.8227H159.122ZM169.685 50.632C171.251 50.632 172.516 51.1326 173.48 52.1339C174.445 53.1194 174.927 54.5021 174.927 56.282V64.03H171.607V56.735C171.607 55.686 171.346 54.8836 170.824 54.3272C170.302 53.755 169.59 53.4689 168.689 53.4689C167.772 53.4689 167.044 53.755 166.507 54.3272C165.985 54.8836 165.724 55.686 165.724 56.735V64.03H162.403V50.8227H165.724V52.4677C166.167 51.8955 166.728 51.4506 167.408 51.1326C168.104 50.7989 168.863 50.632 169.685 50.632ZM183.232 50.6081C184.213 50.6081 185.075 50.8069 185.818 51.2041C186.561 51.5856 187.146 52.0862 187.573 52.7061V50.8227H190.917V64.1254C190.917 65.3493 190.672 66.4378 190.182 67.3914C189.692 68.3612 188.957 69.1241 187.976 69.6801C186.996 70.2522 185.81 70.5383 184.418 70.5383C182.552 70.5383 181.019 70.1015 179.817 69.2271C178.631 68.3531 177.959 67.1611 177.8 65.6511H181.097C181.271 66.2552 181.643 66.732 182.212 67.0815C182.798 67.4472 183.501 67.6298 184.323 67.6298C185.288 67.6298 186.071 67.3361 186.671 66.7478C187.272 66.1756 187.573 65.3016 187.573 64.1254V62.0751C187.146 62.695 186.553 63.2118 185.794 63.6247C185.051 64.0381 184.197 64.2446 183.232 64.2446C182.125 64.2446 181.113 63.9585 180.196 63.3863C179.279 62.8142 178.552 62.0117 178.014 60.9785C177.492 59.9295 177.231 58.7299 177.231 57.3787C177.231 56.0436 177.492 54.8597 178.014 53.8265C178.552 52.7937 179.271 51.9989 180.172 51.4425C181.09 50.8865 182.11 50.6081 183.232 50.6081ZM187.573 57.4264C187.573 56.6158 187.415 55.9244 187.098 55.3523C186.782 54.7644 186.355 54.3195 185.818 54.0172C185.28 53.6996 184.703 53.5404 184.086 53.5404C183.469 53.5404 182.9 53.6916 182.378 53.9934C181.856 54.2956 181.429 54.7405 181.097 55.3284C180.781 55.9006 180.623 56.5843 180.623 57.3787C180.623 58.1735 180.781 58.8729 181.097 59.4766C181.429 60.0649 181.856 60.5178 182.378 60.8355C182.916 61.1535 183.485 61.3123 184.086 61.3123C184.703 61.3123 185.28 61.1615 185.818 60.8593C186.355 60.5417 186.782 60.0964 187.098 59.5243C187.415 58.9363 187.573 58.2369 187.573 57.4264ZM199.006 55.686C199.006 54.0492 199.37 52.5869 200.097 51.2995C200.84 49.9964 201.844 48.987 203.109 48.2718C204.39 47.5409 205.822 47.1752 207.403 47.1752C209.253 47.1752 210.874 47.652 212.265 48.6056C213.657 49.5592 214.629 50.8785 215.183 52.563H211.364C210.984 51.7686 210.447 51.1726 209.751 50.775C209.071 50.3778 208.28 50.179 207.379 50.179C206.415 50.179 205.553 50.4097 204.794 50.8704C204.05 51.3156 203.465 51.9512 203.038 52.7776C202.627 53.6043 202.422 54.5736 202.422 55.686C202.422 56.7827 202.627 57.7524 203.038 58.5945C203.465 59.4212 204.05 60.0649 204.794 60.5255C205.553 60.9708 206.415 61.1931 207.379 61.1931C208.28 61.1931 209.071 60.9947 209.751 60.5971C210.447 60.1841 210.984 59.58 211.364 58.7852H215.183C214.629 60.4859 213.657 61.8129 212.265 62.7665C210.889 63.7043 209.268 64.173 207.403 64.173C205.822 64.173 204.39 63.8154 203.109 63.1003C201.844 62.3693 200.84 61.3599 200.097 60.0726C199.37 58.7852 199.006 57.3233 199.006 55.686ZM221.34 46.3885V64.03H218.019V46.3885H221.34ZM237.026 50.8227V64.03H233.682V62.3612C233.255 62.9334 232.693 63.3863 231.997 63.7201C231.318 64.0381 230.574 64.1969 229.768 64.1969C228.74 64.1969 227.831 63.9823 227.04 63.5532C226.249 63.1083 225.625 62.4646 225.166 61.6222C224.724 60.7639 224.502 59.7469 224.502 58.5707V50.8227H227.823V58.0939C227.823 59.1428 228.084 59.9534 228.606 60.5255C229.127 61.0819 229.839 61.3599 230.74 61.3599C231.657 61.3599 232.377 61.0819 232.899 60.5255C233.421 59.9534 233.682 59.1428 233.682 58.0939V50.8227H237.026ZM243.623 52.7537C244.05 52.1181 244.635 51.6017 245.378 51.2041C246.137 50.8069 246.999 50.6081 247.964 50.6081C249.087 50.6081 250.099 50.8865 251 51.4425C251.917 51.9989 252.637 52.7937 253.158 53.8265C253.696 54.844 253.965 56.0279 253.965 57.3787C253.965 58.7299 253.696 59.9295 253.158 60.9785C252.637 62.0117 251.917 62.8142 251 63.3863C250.099 63.9585 249.087 64.2446 247.964 64.2446C246.983 64.2446 246.122 64.0538 245.378 63.6724C244.651 63.2752 244.066 62.7665 243.623 62.1467V64.03H240.302V46.3885H243.623V52.7537ZM250.573 57.3787C250.573 56.5843 250.407 55.9006 250.075 55.3284C249.758 54.7405 249.331 54.2956 248.794 53.9934C248.272 53.6916 247.703 53.5404 247.086 53.5404C246.485 53.5404 245.916 53.6996 245.378 54.0172C244.857 54.3195 244.43 54.7644 244.097 55.3523C243.781 55.9406 243.623 56.6319 243.623 57.4264C243.623 58.2211 243.781 58.9125 244.097 59.5004C244.43 60.0887 244.857 60.5417 245.378 60.8593C245.916 61.1615 246.485 61.3123 247.086 61.3123C247.703 61.3123 248.272 61.1535 248.794 60.8355C249.331 60.5178 249.758 60.0649 250.075 59.4766C250.407 58.8887 250.573 58.1892 250.573 57.3787Z" fill="url(#paint1_linear_331_146)"/>
<path opacity="0.7" d="M114.322 39.5326H112.929L107.328 30.9964V39.5326H105.936V28.797H107.328L112.929 37.3178V28.797H114.322V39.5326ZM124.347 34.9954C124.347 35.262 124.332 35.5439 124.301 35.8413H117.598C117.649 36.6718 117.93 37.323 118.44 37.7946C118.96 38.256 119.588 38.4868 120.322 38.4868C120.924 38.4868 121.424 38.3483 121.822 38.0715C122.23 37.7844 122.516 37.405 122.679 36.9333H124.179C123.954 37.7434 123.505 38.4047 122.832 38.9174C122.159 39.4199 121.322 39.6711 120.322 39.6711C119.527 39.6711 118.812 39.4916 118.18 39.1327C117.557 38.7739 117.068 38.2663 116.711 37.6101C116.353 36.9436 116.175 36.1746 116.175 35.303C116.175 34.4314 116.349 33.6675 116.696 33.0113C117.042 32.3551 117.527 31.8526 118.149 31.504C118.782 31.1451 119.506 30.9656 120.322 30.9656C121.118 30.9656 121.822 31.14 122.434 31.4886C123.046 31.8372 123.515 32.3191 123.842 32.9344C124.179 33.5394 124.347 34.2263 124.347 34.9954ZM122.908 34.7031C122.908 34.17 122.791 33.7137 122.557 33.3343C122.322 32.9446 122 32.6524 121.592 32.4576C121.195 32.2525 120.751 32.15 120.261 32.15C119.557 32.15 118.955 32.3755 118.455 32.8267C117.966 33.2779 117.685 33.9033 117.614 34.7031H122.908ZM137.356 31.1041L134.739 39.5326H133.301L131.281 32.8421L129.261 39.5326H127.822L125.19 31.1041H126.613L128.541 38.1791L130.623 31.1041H132.046L134.081 38.1945L135.979 31.1041H137.356ZM140.437 32.2576V37.2255C140.437 37.6357 140.523 37.9279 140.697 38.1022C140.87 38.2663 141.171 38.3483 141.6 38.3483H142.625V39.5326H141.37C140.595 39.5326 140.013 39.3532 139.626 38.9943C139.238 38.6354 139.044 38.0459 139.044 37.2255V32.2576H137.958V31.1041H139.044V28.9816H140.437V31.1041H142.625V32.2576H140.437ZM147.97 39.6711C147.184 39.6711 146.47 39.4916 145.827 39.1327C145.195 38.7739 144.695 38.2663 144.328 37.6101C143.971 36.9436 143.792 36.1746 143.792 35.303C143.792 34.4417 143.976 33.6829 144.343 33.0266C144.72 32.3602 145.23 31.8526 145.873 31.504C146.516 31.1451 147.235 30.9656 148.031 30.9656C148.827 30.9656 149.546 31.1451 150.189 31.504C150.831 31.8526 151.336 32.3551 151.704 33.0113C152.081 33.6675 152.27 34.4314 152.27 35.303C152.27 36.1746 152.076 36.9436 151.688 37.6101C151.311 38.2663 150.796 38.7739 150.143 39.1327C149.49 39.4916 148.765 39.6711 147.97 39.6711ZM147.97 38.4406C148.47 38.4406 148.939 38.3227 149.378 38.0869C149.816 37.851 150.168 37.4973 150.433 37.0256C150.709 36.554 150.847 35.9797 150.847 35.303C150.847 34.6262 150.714 34.052 150.449 33.5803C150.184 33.1087 149.837 32.7601 149.408 32.5345C148.98 32.2986 148.516 32.1807 148.016 32.1807C147.506 32.1807 147.036 32.2986 146.608 32.5345C146.19 32.7601 145.853 33.1087 145.598 33.5803C145.343 34.052 145.215 34.6262 145.215 35.303C145.215 35.99 145.338 36.5693 145.582 37.041C145.838 37.5127 146.174 37.8664 146.592 38.1022C147.011 38.3278 147.47 38.4406 147.97 38.4406ZM158.187 30.9503C159.207 30.9503 160.033 31.263 160.666 31.8885C161.298 32.5037 161.614 33.3958 161.614 34.5647V39.5326H160.237V34.7647C160.237 33.9239 160.028 33.283 159.61 32.8421C159.192 32.3909 158.62 32.1653 157.896 32.1653C157.161 32.1653 156.575 32.396 156.136 32.8575C155.708 33.3189 155.493 33.9905 155.493 34.8723V39.5326H154.101V31.1041H155.493V32.3038C155.769 31.8731 156.141 31.5399 156.61 31.304C157.09 31.0682 157.615 30.9503 158.187 30.9503ZM171.351 39.6403C170.647 39.6403 170.015 39.5173 169.453 39.2712C168.902 39.0148 168.469 38.6662 168.153 38.2253C167.836 37.7741 167.673 37.2563 167.663 36.6718H169.147C169.198 37.1743 169.402 37.5998 169.759 37.9484C170.127 38.2868 170.657 38.456 171.351 38.456C172.014 38.456 172.534 38.292 172.912 37.9638C173.299 37.6254 173.493 37.1948 173.493 36.6718C173.493 36.2617 173.381 35.9285 173.157 35.6721C172.932 35.4158 172.652 35.221 172.315 35.0876C171.978 34.9544 171.524 34.8108 170.953 34.657C170.249 34.4724 169.683 34.2879 169.254 34.1033C168.836 33.9187 168.474 33.6316 168.168 33.242C167.872 32.8421 167.724 32.3089 167.724 31.6424C167.724 31.0579 167.872 30.5401 168.168 30.089C168.464 29.6378 168.877 29.2892 169.407 29.0431C169.948 28.797 170.566 28.6739 171.259 28.6739C172.259 28.6739 173.075 28.9252 173.708 29.4276C174.35 29.93 174.713 30.5965 174.794 31.4271H173.264C173.213 31.0169 172.999 30.658 172.621 30.3504C172.243 30.0326 171.744 29.8736 171.121 29.8736C170.54 29.8736 170.065 30.0274 169.698 30.335C169.331 30.6324 169.147 31.0528 169.147 31.5963C169.147 31.9859 169.254 32.3038 169.469 32.5498C169.693 32.7959 169.963 32.9857 170.28 33.1189C170.606 33.242 171.06 33.3856 171.642 33.5496C172.346 33.7444 172.912 33.9393 173.34 34.1341C173.769 34.3186 174.136 34.6108 174.442 35.0108C174.748 35.4004 174.901 35.9336 174.901 36.6103C174.901 37.1333 174.763 37.6254 174.488 38.0869C174.213 38.5483 173.804 38.9226 173.264 39.2096C172.723 39.4968 172.085 39.6403 171.351 39.6403ZM176.43 35.303C176.43 34.4314 176.604 33.6726 176.951 33.0266C177.297 32.3704 177.777 31.8629 178.389 31.504C179.011 31.1451 179.72 30.9656 180.516 30.9656C181.546 30.9656 182.393 31.2169 183.056 31.7193C183.73 32.2217 184.174 32.919 184.388 33.8111H182.888C182.745 33.2984 182.465 32.8934 182.047 32.596C181.638 32.2986 181.128 32.15 180.516 32.15C179.72 32.15 179.078 32.4268 178.588 32.9805C178.098 33.524 177.854 34.2981 177.854 35.303C177.854 36.3181 178.098 37.1025 178.588 37.6562C179.078 38.2099 179.72 38.4868 180.516 38.4868C181.128 38.4868 181.638 38.3432 182.047 38.0561C182.454 37.769 182.735 37.3589 182.888 36.8257H184.388C184.163 37.687 183.715 38.3791 183.041 38.902C182.368 39.4147 181.526 39.6711 180.516 39.6711C179.72 39.6711 179.011 39.4916 178.389 39.1327C177.777 38.7739 177.297 38.2663 176.951 37.6101C176.604 36.9538 176.43 36.1848 176.43 35.303ZM190.408 30.9503C191.041 30.9503 191.612 31.0887 192.122 31.3655C192.632 31.6322 193.03 32.0372 193.316 32.5806C193.612 33.1241 193.759 33.7854 193.759 34.5647V39.5326H192.382V34.7647C192.382 33.9239 192.173 33.283 191.755 32.8421C191.337 32.3909 190.765 32.1653 190.041 32.1653C189.306 32.1653 188.72 32.396 188.281 32.8575C187.852 33.3189 187.638 33.9905 187.638 34.8723V39.5326H186.246V28.151H187.638V32.3038C187.914 31.8731 188.291 31.5399 188.771 31.304C189.26 31.0682 189.806 30.9503 190.408 30.9503ZM199.692 39.6711C198.906 39.6711 198.192 39.4916 197.549 39.1327C196.917 38.7739 196.417 38.2663 196.049 37.6101C195.692 36.9436 195.514 36.1746 195.514 35.303C195.514 34.4417 195.697 33.6829 196.065 33.0266C196.442 32.3602 196.952 31.8526 197.595 31.504C198.238 31.1451 198.957 30.9656 199.753 30.9656C200.548 30.9656 201.268 31.1451 201.91 31.504C202.553 31.8526 203.058 32.3551 203.425 33.0113C203.803 33.6675 203.992 34.4314 203.992 35.303C203.992 36.1746 203.798 36.9436 203.41 37.6101C203.033 38.2663 202.518 38.7739 201.865 39.1327C201.212 39.4916 200.487 39.6711 199.692 39.6711ZM199.692 38.4406C200.192 38.4406 200.661 38.3227 201.099 38.0869C201.538 37.851 201.89 37.4973 202.155 37.0256C202.431 36.554 202.568 35.9797 202.568 35.303C202.568 34.6262 202.436 34.052 202.171 33.5803C201.905 33.1087 201.558 32.7601 201.13 32.5345C200.701 32.2986 200.237 32.1807 199.737 32.1807C199.227 32.1807 198.758 32.2986 198.33 32.5345C197.911 32.7601 197.575 33.1087 197.32 33.5803C197.065 34.052 196.937 34.6262 196.937 35.303C196.937 35.99 197.059 36.5693 197.304 37.041C197.559 37.5127 197.896 37.8664 198.314 38.1022C198.733 38.3278 199.192 38.4406 199.692 38.4406ZM209.48 39.6711C208.695 39.6711 207.98 39.4916 207.338 39.1327C206.705 38.7739 206.205 38.2663 205.838 37.6101C205.481 36.9436 205.302 36.1746 205.302 35.303C205.302 34.4417 205.486 33.6829 205.853 33.0266C206.231 32.3602 206.741 31.8526 207.384 31.504C208.026 31.1451 208.745 30.9656 209.541 30.9656C210.337 30.9656 211.056 31.1451 211.699 31.504C212.342 31.8526 212.847 32.3551 213.214 33.0113C213.591 33.6675 213.78 34.4314 213.78 35.303C213.78 36.1746 213.587 36.9436 213.199 37.6101C212.821 38.2663 212.306 38.7739 211.653 39.1327C211 39.4916 210.276 39.6711 209.48 39.6711ZM209.48 38.4406C209.98 38.4406 210.449 38.3227 210.888 38.0869C211.327 37.851 211.679 37.4973 211.944 37.0256C212.219 36.554 212.357 35.9797 212.357 35.303C212.357 34.6262 212.225 34.052 211.959 33.5803C211.694 33.1087 211.347 32.7601 210.918 32.5345C210.49 32.2986 210.026 32.1807 209.526 32.1807C209.016 32.1807 208.547 32.2986 208.118 32.5345C207.7 32.7601 207.363 33.1087 207.108 33.5803C206.853 34.052 206.725 34.6262 206.725 35.303C206.725 35.99 206.848 36.5693 207.093 37.041C207.348 37.5127 207.685 37.8664 208.103 38.1022C208.521 38.3278 208.98 38.4406 209.48 38.4406ZM217.004 28.151V39.5326H215.611V28.151H217.004Z" fill="url(#paint2_linear_331_146)"/>
<defs>
<linearGradient id="paint0_linear_331_146" x1="118.09" y1="50.7631" x2="316.068" y2="164.076" gradientUnits="userSpaceOnUse">
<stop stop-color="white"/>
<stop offset="0.541668" stop-color="white" stop-opacity="0.76"/>
<stop offset="1" stop-color="white"/>
</linearGradient>
<linearGradient id="paint1_linear_331_146" x1="93.1899" y1="57.6956" x2="321.725" y2="51.1396" gradientUnits="userSpaceOnUse">
<stop stop-color="white"/>
<stop offset="1" stop-color="#F4F4F4" stop-opacity="0.67"/>
</linearGradient>
<linearGradient id="paint2_linear_331_146" x1="106.296" y1="39.683" x2="243.908" y2="33.1271" gradientUnits="userSpaceOnUse">
<stop stop-color="white"/>
<stop offset="0.0001" stop-color="white" stop-opacity="0.83"/>
<stop offset="0.447917" stop-color="#FAFAFA" stop-opacity="0.48"/>
<stop offset="1" stop-color="#F4F4F4"/>
</linearGradient>
</defs>
</svg>
