<svg width="36" height="34" viewBox="0 0 36 34" fill="none" xmlns="http://www.w3.org/2000/svg">
<path d="M18 0C8.059 0 0 6.268 0 14C0 18.368 2.574 22.268 6.604 24.835C6.08 27.144 4.859 30.569 2 34C7.758 33.04 11.439 30.239 13.716 27.584C15.092 27.846 16.521 28 18 28C27.941 28 36 21.732 36 14C36 6.268 27.941 0 18 0Z" fill="#BDDDF4"/>
<path d="M18 16C19.1046 16 20 15.1046 20 14C20 12.8954 19.1046 12 18 12C16.8954 12 16 12.8954 16 14C16 15.1046 16.8954 16 18 16Z" fill="#2A6797"/>
<path d="M26 16C27.1046 16 28 15.1046 28 14C28 12.8954 27.1046 12 26 12C24.8954 12 24 12.8954 24 14C24 15.1046 24.8954 16 26 16Z" fill="#2A6797"/>
<path d="M10 16C11.1046 16 12 15.1046 12 14C12 12.8954 11.1046 12 10 12C8.89543 12 8 12.8954 8 14C8 15.1046 8.89543 16 10 16Z" fill="#2A6797"/>
</svg>
