<svg width="37" height="52" viewBox="0 0 37 52" fill="none" xmlns="http://www.w3.org/2000/svg">
<path d="M3.00488 29H11.0049V39H3.00488V29ZM25.0049 29H33.0049V39H25.0049V29Z" fill="#F7DECE"/>
<path d="M33.0049 31.72C33.0049 31.72 30.0049 33.72 25.0049 32.72V27.72H33.0049V31.72ZM3.00488 31.72C3.00488 31.72 6.00488 33.72 11.0049 32.72V27.72H3.00488V31.72Z" fill="#EEC2AD"/>
<path d="M3.98804 21.229H11.988V29.229H3.98804V21.229ZM24.011 21.193H32.011V29.193H24.011V21.193Z" fill="#E0AA94"/>
<path d="M0.377939 14.835C0.377939 14.835 0.380939 13.61 1.60494 13.613C2.83094 13.617 2.82694 14.842 2.82694 14.842L2.80794 20.526C3.00294 20.436 3.20694 20.355 3.42094 20.285L3.44594 12.396C3.44594 12.396 3.44994 11.171 4.67294 11.175C5.89694 11.178 5.89394 12.404 5.89394 12.404L5.87294 19.824C6.07194 19.806 6.27694 19.792 6.48294 19.782L6.51094 11.18C6.51094 11.18 6.51394 9.95498 7.73894 9.95998C8.96394 9.96398 8.95894 11.189 8.95894 11.189L8.93094 19.789C9.14094 19.801 9.34294 19.822 9.54494 19.841L9.56994 11.802C9.56994 11.802 9.57394 10.577 10.7969 10.582C12.0209 10.585 12.0159 11.809 12.0159 11.809L11.9919 20.31L11.9889 20.991V21.602C8.31494 21.593 5.85594 24.644 5.84494 27.706C5.84494 28.318 6.45694 28.322 6.45694 28.322C6.46694 24.644 8.92394 22.207 12.5989 22.218L14.3999 18.03C14.3999 18.03 14.7949 16.871 15.9559 17.268C17.1139 17.66 16.7209 18.821 16.7209 18.821L15.8279 21.926C15.4739 23.16 15.1429 24.402 14.9689 25.67C14.4709 29.254 11.3879 32.01 7.66994 32C3.61494 31.983 0.334939 28.685 0.347939 24.63C0.348939 24.416 0.361939 24.212 0.381939 24.02L0.349939 24.016L0.377939 14.835ZM35.6219 14.835C35.6219 14.835 35.6189 13.61 34.3949 13.613C33.1689 13.617 33.1719 14.842 33.1719 14.842L33.1909 20.526C32.9969 20.436 32.7919 20.355 32.5789 20.285L32.5539 12.396C32.5539 12.396 32.5499 11.171 31.3269 11.175C30.1019 11.178 30.1049 12.404 30.1049 12.404L30.1269 19.824C29.9289 19.806 29.7239 19.792 29.5169 19.782L29.4899 11.18C29.4899 11.18 29.4859 9.95498 28.2609 9.95998C27.0359 9.96398 27.0409 11.189 27.0409 11.189L27.0689 19.789C26.8589 19.801 26.6569 19.822 26.4549 19.841L26.4299 11.802C26.4299 11.802 26.4249 10.577 25.2019 10.582C23.9779 10.585 23.9829 11.809 23.9829 11.809L24.0069 20.31L24.0099 20.991V21.602C27.6839 21.593 30.1429 24.644 30.1549 27.706C30.1549 28.318 29.5429 28.322 29.5429 28.322C29.5319 24.644 27.0749 22.207 23.4009 22.218L21.5999 18.03C21.5999 18.03 21.2059 16.871 20.0439 17.268C18.8869 17.66 19.2789 18.821 19.2789 18.821L20.1719 21.926C20.5259 23.16 20.8569 24.402 21.0309 25.67C21.5289 29.254 24.6109 32.01 28.3299 32C32.3849 31.983 35.6659 28.685 35.6519 24.63C35.6509 24.416 35.6379 24.212 35.6179 24.02L35.6499 24.016L35.6219 14.835Z" fill="#F7DECE"/>
<path d="M23.5459 9.458C23.3329 9.458 23.1169 9.39 22.9359 9.25C22.4979 8.912 22.4179 8.284 22.7559 7.847L25.7349 3.992C26.0699 3.556 26.6999 3.472 27.1369 3.812C27.5749 4.15 27.6549 4.778 27.3169 5.215L24.3379 9.07C24.1419 9.325 23.8459 9.458 23.5459 9.458ZM12.5259 9.458C12.2269 9.458 11.9309 9.324 11.7339 9.069L8.7549 5.215C8.4179 4.778 8.4989 4.15 8.9359 3.812C9.3729 3.475 9.9999 3.555 10.3389 3.992L13.3179 7.847C13.6549 8.284 13.5749 8.912 13.1379 9.25C12.9549 9.391 12.7399 9.458 12.5259 9.458ZM18.0049 9C17.4529 9 17.0049 8.552 17.0049 8V4C17.0049 3.448 17.4529 3 18.0049 3C18.5579 3 19.0049 3.448 19.0049 4V8C19.0049 8.552 18.5579 9 18.0049 9Z" fill="#5DADEC"/>
</svg>
