<svg width="36" height="32" viewBox="0 0 36 32" fill="none" xmlns="http://www.w3.org/2000/svg">
<path d="M12.7332 28.75C12.4572 30.959 10.4422 31.75 8.23318 31.75C6.02418 31.75 4.45718 29.959 4.73318 27.75L5.73318 18.75C6.00918 16.541 8.02418 14.75 10.2332 14.75C12.4422 14.75 16.7012 14.75 13.7332 18.75C10.7652 22.75 12.7332 28.75 12.7332 28.75Z" fill="#BE1931"/>
<path d="M35.65 12.75C35.65 19.652 34.106 25.25 32.2 25.25C30.295 25.25 11.75 19.652 11.75 12.75C11.75 5.847 30.295 0.25 32.2 0.25C34.106 0.25 35.65 5.847 35.65 12.75Z" fill="#CCD6DD"/>
<path d="M32.2 25.25C34.1054 25.25 35.65 19.6536 35.65 12.75C35.65 5.84644 34.1054 0.25 32.2 0.25C30.2946 0.25 28.75 5.84644 28.75 12.75C28.75 19.6536 30.2946 25.25 32.2 25.25Z" fill="#66757F"/>
<path d="M17.75 19.75L3.75 18.75C-1.25 18.75 -1.25 6.75 3.75 6.75L17.75 5.75C14.75 8.75 14.75 16.75 17.75 19.75Z" fill="#DD2E44"/>
<path d="M31.1499 17.098C31.9783 17.098 32.6499 15.1513 32.6499 12.75C32.6499 10.3486 31.9783 8.40198 31.1499 8.40198C30.3215 8.40198 29.6499 10.3486 29.6499 12.75C29.6499 15.1513 30.3215 17.098 31.1499 17.098Z" fill="#99AAB5"/>
</svg>
