<svg width="37" height="36" viewBox="0 0 37 36" fill="none" xmlns="http://www.w3.org/2000/svg">
<g opacity="0.8">
<path d="M18.5 36C28.4411 36 36.5 27.9411 36.5 18C36.5 8.05887 28.4411 0 18.5 0C8.55887 0 0.5 8.05887 0.5 18C0.5 27.9411 8.55887 36 18.5 36Z" fill="#DD2E44"/>
<path d="M18.5 31.5C25.9558 31.5 32 25.4558 32 18C32 10.5442 25.9558 4.5 18.5 4.5C11.0442 4.5 5 10.5442 5 18C5 25.4558 11.0442 31.5 18.5 31.5Z" fill="white"/>
<path d="M18.5 28C24.0228 28 28.5 23.5228 28.5 18C28.5 12.4772 24.0228 8 18.5 8C12.9772 8 8.5 12.4772 8.5 18C8.5 23.5228 12.9772 28 18.5 28Z" fill="#DD2E44"/>
<path d="M18.5 24C21.8137 24 24.5 21.3137 24.5 18C24.5 14.6863 21.8137 12 18.5 12C15.1863 12 12.5 14.6863 12.5 18C12.5 21.3137 15.1863 24 18.5 24Z" fill="white"/>
<path d="M18.5 21C20.1569 21 21.5 19.6569 21.5 18C21.5 16.3431 20.1569 15 18.5 15C16.8431 15 15.5 16.3431 15.5 18C15.5 19.6569 16.8431 21 18.5 21Z" fill="#DD2E44"/>
<path opacity="0.2" d="M18.7401 18.282L31.8841 30.036C31.8841 30.036 29.2371 33.412 23.9941 35.145L18.0791 18.42L18.7401 18.282Z" fill="black"/>
<path d="M18.7941 19C18.5391 19 18.2851 18.903 18.0901 18.708C17.7011 18.319 17.7011 17.69 18.0901 17.301L18.6531 16.738C19.0421 16.349 19.6711 16.349 20.0611 16.738C20.4491 17.127 20.4491 17.756 20.0611 18.145L19.4971 18.708C19.3031 18.903 19.0491 19 18.7941 19Z" fill="#FFAC33"/>
<path d="M24.516 6.98106C24.113 9.06006 24.516 11.6721 24.516 11.6721L31.57 4.28406C31.861 2.83006 31.042 0.352059 29.852 0.0460586C28.662 -0.259941 25.773 0.849059 24.516 6.98106ZM29.519 11.9841C27.44 12.3871 24.828 11.9841 24.828 11.9841L32.216 4.93006C33.67 4.63906 36.148 5.45806 36.454 6.64806C36.76 7.83806 35.651 10.7271 29.519 11.9841Z" fill="#55ACEE"/>
<path d="M33.2981 4.48501L21.6761 17.587C21.3141 17.949 20.0031 18.469 19.1661 17.633C18.3301 16.797 18.7471 15.553 19.1091 15.19L32.3151 3.50101C32.3151 3.50101 32.9911 2.86601 33.4741 3.34901C33.9571 3.83201 33.2981 4.48501 33.2981 4.48501Z" fill="#3A87C2"/>
</g>
</svg>
