<svg width="40" height="40" viewBox="0 0 40 40" fill="none" xmlns="http://www.w3.org/2000/svg">
<g style="mix-blend-mode:overlay" opacity="0.7">
<path d="M19.9999 14.7932C17.1328 14.7932 14.7929 17.133 14.7929 20.0002C14.7929 22.8674 17.1328 25.2072 19.9999 25.2072C22.8671 25.2072 25.207 22.8674 25.207 20.0002C25.207 17.133 22.8671 14.7932 19.9999 14.7932ZM35.6171 20.0002C35.6171 17.8439 35.6367 15.7072 35.5156 13.5549C35.3945 11.0549 34.8242 8.83612 32.996 7.008C31.164 5.17597 28.9492 4.60956 26.4492 4.48847C24.2929 4.36737 22.1562 4.3869 20.0038 4.3869C17.8476 4.3869 15.7109 4.36737 13.5585 4.48847C11.0585 4.60956 8.83979 5.17987 7.01166 7.008C5.17963 8.84003 4.61322 11.0549 4.49213 13.5549C4.37103 15.7111 4.39057 17.8478 4.39057 20.0002C4.39057 22.1525 4.37103 24.2932 4.49213 26.4455C4.61322 28.9455 5.18353 31.1642 7.01166 32.9924C8.84369 34.8244 11.0585 35.3908 13.5585 35.5119C15.7148 35.633 17.8515 35.6135 20.0038 35.6135C22.1601 35.6135 24.2968 35.633 26.4492 35.5119C28.9492 35.3908 31.1679 34.8205 32.996 32.9924C34.8281 31.1603 35.3945 28.9455 35.5156 26.4455C35.6406 24.2932 35.6171 22.1564 35.6171 20.0002ZM19.9999 28.0119C15.5663 28.0119 11.9882 24.4338 11.9882 20.0002C11.9882 15.5666 15.5663 11.9885 19.9999 11.9885C24.4335 11.9885 28.0117 15.5666 28.0117 20.0002C28.0117 24.4338 24.4335 28.0119 19.9999 28.0119ZM28.3398 13.5314C27.3046 13.5314 26.4687 12.6955 26.4687 11.6603C26.4687 10.6252 27.3046 9.78925 28.3398 9.78925C29.3749 9.78925 30.2109 10.6252 30.2109 11.6603C30.2112 11.9061 30.163 12.1496 30.0691 12.3767C29.9752 12.6039 29.8373 12.8103 29.6635 12.9841C29.4897 13.1579 29.2833 13.2957 29.0562 13.3896C28.829 13.4836 28.5856 13.5317 28.3398 13.5314Z" fill="white"/>
</g>
</svg>
