<svg width="37" height="30" viewBox="0 0 37 30" fill="none" xmlns="http://www.w3.org/2000/svg">
<path d="M9.203 28.281C13.5953 28.281 17.156 22.3349 17.156 15C17.156 7.6651 13.5953 1.71899 9.203 1.71899C4.81068 1.71899 1.25 7.6651 1.25 15C1.25 22.3349 4.81068 28.281 9.203 28.281Z" fill="#F5F8FA"/>
<path d="M9.203 29.031C4.323 29.031 0.5 22.868 0.5 15C0.5 7.13199 4.323 0.968994 9.203 0.968994C14.083 0.968994 17.906 7.13199 17.906 15C17.906 22.868 14.083 29.031 9.203 29.031ZM9.203 2.46899C5.231 2.46899 2 8.08999 2 15C2 21.91 5.231 27.531 9.203 27.531C13.175 27.531 16.406 21.91 16.406 15C16.406 8.08999 13.175 2.46899 9.203 2.46899Z" fill="#E1E8ED"/>
<path d="M6.96903 19.96C9.70837 19.96 11.929 17.7394 11.929 15C11.929 12.2607 9.70837 10.04 6.96903 10.04C4.2297 10.04 2.00903 12.2607 2.00903 15C2.00903 17.7394 4.2297 19.96 6.96903 19.96Z" fill="#8899A6"/>
<path d="M6.96905 18.5649C8.93795 18.5649 10.5341 16.9688 10.5341 14.9999C10.5341 13.031 8.93795 11.4349 6.96905 11.4349C5.00016 11.4349 3.40405 13.031 3.40405 14.9999C3.40405 16.9688 5.00016 18.5649 6.96905 18.5649Z" fill="#292F33"/>
<path d="M8.28611 13.869C9.07367 13.869 9.71211 13.2305 9.71211 12.443C9.71211 11.6554 9.07367 11.017 8.28611 11.017C7.49855 11.017 6.86011 11.6554 6.86011 12.443C6.86011 13.2305 7.49855 13.869 8.28611 13.869Z" fill="#F5F8FA"/>
<path d="M27.609 28.281C32.0013 28.281 35.562 22.3349 35.562 15C35.562 7.6651 32.0013 1.71899 27.609 1.71899C23.2167 1.71899 19.656 7.6651 19.656 15C19.656 22.3349 23.2167 28.281 27.609 28.281Z" fill="#F5F8FA"/>
<path d="M27.609 29.031C22.729 29.031 18.906 22.868 18.906 15C18.906 7.13199 22.729 0.968994 27.609 0.968994C32.489 0.968994 36.313 7.13199 36.313 15C36.313 22.868 32.489 29.031 27.609 29.031ZM27.609 2.46899C23.637 2.46899 20.406 8.09099 20.406 15C20.406 21.91 23.637 27.531 27.609 27.531C31.581 27.531 34.813 21.91 34.813 15C34.813 8.08999 31.581 2.46899 27.609 2.46899Z" fill="#E1E8ED"/>
<path d="M25.375 19.96C28.1144 19.96 30.335 17.7394 30.335 15C30.335 12.2607 28.1144 10.04 25.375 10.04C22.6357 10.04 20.415 12.2607 20.415 15C20.415 17.7394 22.6357 19.96 25.375 19.96Z" fill="#8899A6"/>
<path d="M25.3751 18.5649C27.344 18.5649 28.9401 16.9688 28.9401 14.9999C28.9401 13.031 27.344 11.4349 25.3751 11.4349C23.4062 11.4349 21.8101 13.031 21.8101 14.9999C21.8101 16.9688 23.4062 18.5649 25.3751 18.5649Z" fill="#292F33"/>
<path d="M26.6921 13.869C27.4797 13.869 28.1181 13.2305 28.1181 12.443C28.1181 11.6554 27.4797 11.017 26.6921 11.017C25.9046 11.017 25.2661 11.6554 25.2661 12.443C25.2661 13.2305 25.9046 13.869 26.6921 13.869Z" fill="#F5F8FA"/>
</svg>
