<svg width="32" height="32" viewBox="0 0 32 32" fill="none" xmlns="http://www.w3.org/2000/svg">
<g style="mix-blend-mode:overlay" opacity="0.7">
<path fill-rule="evenodd" clip-rule="evenodd" d="M1.33325 3.78417C1.33325 3.13421 1.59145 2.51087 2.05104 2.05128C2.51063 1.59169 3.13396 1.3335 3.78392 1.3335H28.2133C28.5354 1.33297 28.8544 1.39598 29.1521 1.51892C29.4498 1.64186 29.7204 1.82231 29.9482 2.04995C30.1761 2.27758 30.3569 2.54793 30.4801 2.84551C30.6034 3.14309 30.6668 3.46207 30.6666 3.78417V28.2135C30.6669 28.5357 30.6038 28.8547 30.4807 29.1525C30.3576 29.4502 30.177 29.7207 29.9493 29.9486C29.7215 30.1764 29.4511 30.3572 29.1534 30.4804C28.8558 30.6037 28.5367 30.667 28.2146 30.6668H3.78392C3.46198 30.6668 3.1432 30.6034 2.84578 30.4802C2.54837 30.3569 2.27815 30.1763 2.05056 29.9486C1.82298 29.7209 1.64249 29.4506 1.51942 29.1531C1.39634 28.8556 1.33308 28.5368 1.33325 28.2148V3.78417ZM12.9439 12.5175H16.9159V14.5122C17.4893 13.3655 18.9559 12.3335 21.1599 12.3335C25.3853 12.3335 26.3866 14.6175 26.3866 18.8082V26.5708H22.1106V19.7628C22.1106 17.3762 21.5373 16.0295 20.0813 16.0295C18.0613 16.0295 17.2213 17.4815 17.2213 19.7628V26.5708H12.9439V12.5175ZM5.61059 26.3882H9.88792V12.3335H5.61059V26.3868V26.3882ZM10.4999 7.7495C10.508 8.11573 10.4428 8.47988 10.3082 8.82059C10.1737 9.16129 9.97239 9.47168 9.71623 9.73354C9.46007 9.99541 9.15418 10.2035 8.81653 10.3455C8.47887 10.4876 8.11624 10.5607 7.74992 10.5607C7.3836 10.5607 7.02097 10.4876 6.68331 10.3455C6.34565 10.2035 6.03977 9.99541 5.78361 9.73354C5.52745 9.47168 5.32618 9.16129 5.1916 8.82059C5.05702 8.47988 4.99185 8.11573 4.99992 7.7495C5.01575 7.03064 5.31243 6.34655 5.82643 5.84375C6.34043 5.34094 7.03088 5.05939 7.74992 5.05939C8.46895 5.05939 9.1594 5.34094 9.67341 5.84375C10.1874 6.34655 10.4841 7.03064 10.4999 7.7495Z" fill="white"/>
</g>
</svg>
